<svg width="512" height="512" viewBox="0 0 512 512" fill="none" xmlns="http://www.w3.org/2000/svg">
  <defs>
    <linearGradient id="grad1" x1="0%" y1="0%" x2="100%" y2="100%">
      <stop offset="0%" style="stop-color:#4F46E5;stop-opacity:1" />
      <stop offset="100%" style="stop-color:#9333EA;stop-opacity:1" />
    </linearGradient>

  </defs>
  

  
  <!-- Abstract Server/Node Shape -->
  <g transform="translate(-56.5, -56.5) scale(1.25)">
    <!-- Central Hexagon/Cube -->
    <path d="M250 50 L423 150 V350 L250 450 L77 350 V150 Z" fill="url(#grad1)" fill-opacity="0.25" />
    
    <!-- Inner Connected Nodes -->
    <circle cx="250" cy="150" r="30" fill="url(#grad1)" />
    <circle cx="163" cy="300" r="30" fill="url(#grad1)" />
    <circle cx="337" cy="300" r="30" fill="url(#grad1)" />
    
    <!-- Connecting Lines -->
    <path d="M250 150 L163 300 M250 150 L337 300 M163 300 L337 300" stroke="url(#grad1)" stroke-width="20" stroke-linecap="round" stroke-linejoin="round" />
    
    <!-- Outer Ring segments -->
    <path d="M250 80 A 170 170 0 0 1 397 165" stroke="url(#grad1)" stroke-width="15" stroke-linecap="round" stroke-opacity="1.0" />
    <path d="M420 250 A 170 170 0 0 1 335 397" stroke="url(#grad1)" stroke-width="15" stroke-linecap="round" stroke-opacity="1.0" />
    <path d="M165 397 A 170 170 0 0 1 80 250" stroke="url(#grad1)" stroke-width="15" stroke-linecap="round" stroke-opacity="1.0" />
  </g>
</svg>
